<svg id="Capa_1" enable-background="new 0 0 512.008 512.008" height="512" viewBox="0 0 512.008 512.008" stroke="whitesmoke" fill="white" style="background-color: rgb(221, 34, 34)" width="512" xmlns="http://www.w3.org/2000/svg"><g><path d="m503.141 164.731-155.859-155.859c-11.831-11.83-31.081-11.828-42.912.001l-44.063 44.062c-8.089 8.088-13.269 18.311-15.015 29.399l-50.747 50.748-.121-.121c-1.875-1.875-4.419-2.929-7.071-2.929s-5.196 1.054-7.071 2.929l-61.542 61.542c-2.561 2.561-3.537 6.307-2.552 9.791 1.896 6.71 3.823 13.411 5.75 20.113 3.775 13.131 7.679 26.709 11.264 40.085 7.485 27.937 3.56 38.609-20.001 54.379-7.236 4.844-13.963 9.257-20.469 13.524-32.905 21.585-56.68 37.181-71.69 61.031-14.943 23.744-21.038 55.202-21.038 108.582 0 5.522 4.477 10 10 10 53.38 0 84.838-6.095 108.581-21.036 23.851-15.011 39.446-38.784 61.031-71.688 4.268-6.507 8.682-13.234 13.525-20.472 15.771-23.561 26.444-27.483 54.379-20 13.376 3.584 26.954 7.488 40.084 11.263 6.702 1.928 13.405 3.854 20.115 5.751 3.485.985 7.23.01 9.791-2.552l61.542-61.542c3.905-3.905 3.905-10.237 0-14.143l-.121-.121 35.113-35.113c.04.041.08.081.12.122 1.875 1.875 4.419 2.929 7.071 2.929s5.196-1.054 7.071-2.929l74.833-74.833c5.715-5.715 8.863-13.335 8.863-21.456s-3.145-15.741-8.861-21.457zm-395.208 309.314c-18.85 11.863-44.703 17.195-87.85 17.886.69-43.147 6.023-69 17.886-87.851 2.518-4.002 5.368-7.755 8.568-11.363l15.053 15.054c-2.198 4.368-3.361 9.222-3.361 14.255 0 8.484 3.304 16.459 9.302 22.457s13.974 9.302 22.457 9.302c5.033 0 9.887-1.163 14.255-3.361l15.053 15.054c-3.609 3.198-7.361 6.048-11.363 8.567zm-9.631-43.706c-2.221 2.221-5.173 3.444-8.314 3.444s-6.094-1.224-8.315-3.444c-2.221-2.221-3.443-5.173-3.443-8.314s1.223-6.094 3.444-8.314c2.221-2.221 5.173-3.444 8.314-3.444s6.094 1.224 8.314 3.444c2.221 2.221 3.444 5.174 3.444 8.314 0 3.142-1.223 6.094-3.444 8.314zm209.219-55.36c-4.799-1.367-9.594-2.746-14.39-4.125-13.216-3.8-26.882-7.729-40.434-11.36-18.868-5.058-31.928-5.388-43.667-1.113-11.792 4.295-21.817 13.334-32.509 29.307-4.896 7.314-9.335 14.082-13.628 20.627-11.313 17.246-20.553 31.331-29.835 42.639l-14.673-14.673c2.198-4.368 3.361-9.222 3.361-14.255 0-8.483-3.304-16.459-9.302-22.457s-13.974-9.302-22.457-9.302c-5.033 0-9.887 1.163-14.255 3.361l-14.672-14.673c11.309-9.283 25.395-18.523 42.641-29.836 6.544-4.293 13.311-8.732 20.625-13.627 15.973-10.691 25.012-20.718 29.307-32.51 4.276-11.738 3.943-24.797-1.112-43.667-3.632-13.552-7.561-27.219-11.361-40.436-1.378-4.794-2.757-9.59-4.125-14.387l4.163-4.163 170.486 170.487zm18.305-18.305-170.486-170.487 32.012-32.012 170.487 170.486zm38.962-53.348-14.232-14.232 22.589-22.588c3.905-3.905 3.906-10.237 0-14.143-3.904-3.903-10.237-3.904-14.142 0l-22.59 22.589-14.232-14.232 6.148-6.148c3.905-3.905 3.906-10.237 0-14.143-3.904-3.903-10.237-3.904-14.142 0l-6.149 6.148-14.232-14.232 6.148-6.148c3.905-3.905 3.906-10.237 0-14.143-3.905-3.903-10.237-3.904-14.142 0l-6.149 6.148-14.232-14.232 26.832-26.831c3.905-3.905 3.906-10.237 0-14.143-3.904-3.903-10.237-3.904-14.142 0l-26.832 26.831-14.232-14.232 15.695-15.694c3.905-3.905 3.906-10.237 0-14.143-3.905-3.903-10.237-3.904-14.142 0l-15.695 15.694-14.231-14.231 38.882-38.883c2.614 7.549 6.926 14.467 12.741 20.282 20.865 20.864 54.816 20.864 75.684 0 2.221-2.222 5.174-3.444 8.314-3.444 3.141 0 6.093 1.223 8.314 3.444 4.584 4.584 4.584 12.044 0 16.628l-29.771 29.771c-12.382 12.383-12.382 32.53 0 44.913s32.531 12.383 44.914 0l45.157-45.156c2.22-2.221 5.173-3.443 8.313-3.443 3.141 0 6.094 1.224 8.314 3.444 2.221 2.221 3.444 5.174 3.444 8.314s-1.223 6.093-3.421 8.291c-.073.072-15.583 15.584-15.683 15.684-15.566 15.787-19.281 39.002-11.186 58.341zm124.211-109.824-66.681 66.68c-6.552-12.562-4.631-28.476 5.774-39.029.255-.256 15.333-15.335 15.6-15.602 5.999-5.998 9.302-13.974 9.302-22.457 0-8.482-3.304-16.457-9.302-22.456-5.999-5.998-13.974-9.302-22.457-9.302-8.483 0-16.458 3.304-22.456 9.302l-45.157 45.155c-4.584 4.586-12.044 4.586-16.629 0-4.584-4.584-4.584-12.044 0-16.628l29.772-29.771c12.381-12.383 12.381-32.53 0-44.912-5.999-5.999-13.974-9.303-22.457-9.303s-16.458 3.304-22.457 9.303c-13.068 13.069-34.332 13.067-47.399 0-6.332-6.331-9.818-14.749-9.819-23.703-.001-8.953 3.485-17.37 9.815-23.7l44.062-44.063c4.033-4.03 10.596-4.031 14.628 0l155.859 155.859c1.938 1.938 3.005 4.535 3.005 7.314.001 2.777-1.065 5.375-3.003 7.313z"/></g></svg>