<svg id="Layer_1" enable-background="new 0 0 512 512" height="512" viewBox="0 0 512 512" stroke="white" fill="white" width="512" xmlns="http://www.w3.org/2000/svg"><path d="m247 157.054c2.03-49.914 73.256-49.599 75 .5v20h120v-20c-7.813-209.156-306.994-209.272-315-.5v76.5h-40v-40h-40v120h40v-40h40v80h-127v40h247zm-40 0v196.5h-40v-196.5c3.993-144.013 205.98-159.803 233.312-19.5h-40.894c-24.55-86.858-150.293-71.495-152.418 19.5zm305 276.5c-.027 72.381-91.597 105.082-138 50.793-29.35 35.483-87.947 36.069-118 1.147-30.064 34.934-88.66 34.324-118-1.147-46.429 54.313-137.985 21.549-138-50.793h40c1.934 50.353 75.084 50.314 77 0h42c1.934 50.353 75.084 50.314 77 0h40c1.934 50.353 75.084 50.314 77 0h42c1.934 50.353 75.084 50.314 77 0zm-110-40v-176h40v176zm-40-81h-40v-95h40zm-40 40h40v41h-40z"/></svg>